<svg xmlns="http://www.w3.org/2000/svg" viewBox="0 0 899 226" class="viator-logo">
    <g fill="none" fill-rule="evenodd">
        <g fill="#186B6D" fill-rule="nonzero" transform="translate(-1 -337)">
            <g transform="translate(1 337)">
                <path d="M883.673025,193.73297 C888.942707,193.472174 893.839974,196.446923 896.0376,201.243588 C898.235226,206.040254 897.290122,211.691726 893.651411,215.512373 C890.0127,219.33302 884.414023,220.552517 879.515923,218.591349 C874.617823,216.63018 871.407838,211.88376 871.411444,206.607629 C871.246895,199.668282 876.733906,193.90692 883.673025,193.73297 M883.673025,191.893733 C875.546764,191.893733 868.959128,198.481369 868.959128,206.607629 C868.959128,214.73389 875.546764,221.321526 883.673025,221.321526 C891.799285,221.321526 898.386921,214.73389 898.386921,206.607629 C898.386921,198.481369 891.799285,191.893733 883.673025,191.893733 Z M885.80654,206.926431 C887.649293,206.557778 888.986412,204.955278 889.019074,203.076294 C889.019074,200.378747 886.689373,199.250681 883.354223,199.250681 L879.087193,199.250681 L879.087193,213.964578 L881.53951,213.964578 L881.53951,207.343324 L883.501362,207.343324 L886.591281,212.247956 C887.572207,213.792916 887.743869,213.891008 889.043597,213.891008 L890.294278,213.891008 L890.294278,213.743869 L885.80654,206.926431 Z M883.158038,206.681199 L881.490463,206.681199 L881.490463,199.912807 L882.986376,199.912807 C885.438692,199.912807 886.444142,200.844687 886.444142,203.27248 C886.444142,205.700272 885.757493,206.558583 883.158038,206.558583 L883.158038,206.681199 Z" />
                <rect width="54.319" height="176.567" x="195.136" y="44.632" />
                <path d="M546.896458,203.542234 C530.93188,203.542234 523.3297,193.953678 523.3297,177.572207 L523.3297,59.346049 L566.46594,59.346049 L566.46594,44.6321526 L523.3297,44.6321526 L523.3297,0.490463215 L471.144414,0.490463215 L468.692098,44.6321526 L445.542234,44.6321526 L445.542234,59.346049 L468.692098,59.346049 L468.692098,175.659401 C468.692098,205.626703 485.858311,225.171662 521.024523,225.171662 C547.386921,225.171662 562.983651,214.405995 569.359673,200.035422 L566.907357,197.239782 C561.102415,201.465783 554.075437,203.678936 546.896458,203.542234 Z" />
                <path d="M660.389646,40.6348774 C602.46594,40.6348774 565.705722,80.9754768 565.705722,133.822888 C565.705722,186.13079 600.038147,225.269755 659.188011,225.269755 C719.514986,225.269755 753.847411,184.953678 753.847411,132.20436 C753.847411,79.7983651 717.896458,40.6348774 660.389646,40.6348774 Z M659.997275,212.419619 C630.814714,212.419619 626.792916,188.828338 626.792916,132.425068 C626.792916,76.9046322 630.765668,52.9209809 659.531335,52.9209809 C688.689373,52.9209809 692.687139,76.9046322 692.687139,133.209809 C692.735695,188.435967 689.155313,212.419619 659.997275,212.419619 L659.997275,212.419619 Z" />
                <path d="M829.86921,74.9918256 L828.667575,44.6321526 L775.942779,44.6321526 L775.942779,221.19891 L830.33515,221.19891 L830.33515,79.7983651 L830.33515,79.7983651 C833.597894,78.7701344 836.993535,78.224849 840.414169,78.1798365 C850.100817,78.1798365 861.381471,82.1771117 895.247956,98.1662125 L898.46049,96.9645777 L898.46049,47.4277929 C892.206219,42.8958412 884.651819,40.5125054 876.929155,40.6348774 C861.700272,40.6348774 843.970027,50.2234332 829.86921,74.9918256 Z" />
                <path d="M375.06267,200.035422 L381.316076,221.19891 L427.787466,221.19891 L427.787466,85.3896458 C427.787466,55.4223433 404.220708,40.6348774 365.474114,40.6348774 C339.504087,40.6348774 307.550409,47.8201635 285.577657,55.0299728 L283.125341,85.7820163 L286.337875,87.3760218 C327.880109,59.4196185 340.288828,53.0435967 353.040872,53.0435967 C367.754768,53.0435967 373.811989,60.6457766 373.811989,76.6103542 L373.811989,113.395095 C312.307902,126.171662 274.73842,135.46594 274.73842,177.302452 C274.73842,206.06812 293.915531,225.245232 324.692098,225.245232 C348.307902,225.196185 365.866485,214.013624 375.06267,200.035422 Z M328.321526,167.27248 C328.321526,140.100817 337.517711,133.307902 373.861035,125.730245 L373.861035,193.73297 C367.295697,198.960131 359.072521,201.65768 350.686649,201.33515 C335.114441,201.237057 328.321526,192.433243 328.321526,167.27248 Z"/>
                <circle cx="139.395" cy="74.06" r="33.106" />
                <polygon points="102.954 221.199 120.243 182.379 58.91 44.632 .839 44.632 79.46 221.199" />
            </g>
        </g>
    </g>
</svg>
